PathFileType	4	(X/Y/Z)	C:/Users/opensim2020/Desktop/walking_exp_matlab/subject01_walking07_straight_04.trc	
DataRate	CameraRate	NumFrames	NumMarkers	Units	OrigDataRate	OrigDataStartFrame	OrigNumFrames	
100.00	100.00	4	43	mm	100.00	2790	176	
Frame#	Time	LFHD			RFHD			LBHD			RBHD			C7			T10			CLAV			STRN			RBAK			LSHO			LUPA			LELB			LFRM			LWRA			LWRB			LFIN			RSHO			RUPA			RELB			RFRM			RWRA			RWRB			RFIN			LASI			RASI			LPSI			RPSI			LTHI			LKNE			LTIB			LANK			LHEE			LTOE			RTHI			RKNE			RTIB			RANK			RHEE			RTOE			*39			*40			*41			*42			
		X1	Y1	Z1	X2	Y2	Z2	X3	Y3	Z3	X4	Y4	Z4	X5	Y5	Z5	X6	Y6	Z6	X7	Y7	Z7	X8	Y8	Z8	X9	Y9	Z9	X10	Y10	Z10	X11	Y11	Z11	X12	Y12	Z12	X13	Y13	Z13	X14	Y14	Z14	X15	Y15	Z15	X16	Y16	Z16	X17	Y17	Z17	X18	Y18	Z18	X19	Y19	Z19	X20	Y20	Z20	X21	Y21	Z21	X22	Y22	Z22	X23	Y23	Z23	X24	Y24	Z24	X25	Y25	Z25	X26	Y26	Z26	X27	Y27	Z27	X28	Y28	Z28	X29	Y29	Z29	X30	Y30	Z30	X31	Y31	Z31	X32	Y32	Z32	X33	Y33	Z33	X34	Y34	Z34	X35	Y35	Z35	X36	Y36	Z36	X37	Y37	Z37	X38	Y38	Z38	X39	Y39	Z39	X40	Y40	Z40	X41	Y41	Z41	X42	Y42	Z42	X43	Y43	Z43	

23	0.220	-995.48010	593.16394	1655.21240	-1104.33740	553.72723	1661.14124	-1031.82654	708.79340	1625.01892	-1147.33423	671.49847	1631.44910	-1062.17883	755.28485	1428.44800	-1072.52808	799.36456	1135.31482	-1071.21033	612.48584	1358.52783	-1066.98364	574.06433	1202.60059	-1135.83350	818.03760	1235.91931	-907.88110	659.09912	1389.87061	-819.47144	636.14093	1209.07935	-814.10938	599.55627	1060.31006	-806.66034	505.84912	988.21490	-848.31671	383.96829	935.53088	-815.55524	420.40509	901.13568	-819.56281	340.96738	872.87280	-1219.29089	683.00806	1389.72046	-1306.21130	774.96735	1196.69995	-1303.36230	790.11884	1073.43909	-1334.36169	789.14313	953.75903	-1324.43762	730.33740	822.94580	-1357.40027	778.20807	833.06958	-1354.28394	759.02692	747.28015	-963.37671	631.78583	927.13586	-1180.70398	620.83142	932.14240	-1029.12134	814.38959	939.60297	-1173.73425	805.74866	939.51050	-923.70288	718.02118	598.18439	-941.57581	758.98413	466.63300	-939.52197	852.74658	299.99945	-1000.50140	930.01245	95.58786	-1053.31519	979.69495	76.62826	-995.48004	791.46918	38.13972	-1261.43787	605.12317	607.11865	-1234.65759	538.79907	465.76126	-1254.13013	529.30560	293.74628	-1220.77844	470.78107	89.11359	-1170.66687	499.33853	33.84134	-1224.60925	325.64557	94.89259	-1082.77246	566.65198	1695.71289	-3101.83887	1973.11475	1023.41888	-3140.65234	2012.51599	1021.99542			 
24	0.230	-997.68658	584.57141	1654.62524	-1106.48083	544.89142	1660.38940	-1034.33496	700.18750	1624.41394	-1149.77429	662.62158	1630.80420	-1064.64685	746.56079	1427.55359	-1074.48938	789.84650	1134.26160	-1073.32080	603.55518	1357.95605	-1068.75293	564.81793	1202.07690	-1138.09119	808.71588	1234.68677	-910.03186	650.65881	1389.55591	-821.36487	627.67908	1208.93494	-815.29150	591.18854	1060.35718	-807.70264	496.76831	988.26678	-849.19934	375.12061	935.59235	-816.62579	411.74509	901.22052	-819.60333	332.04785	873.52399	-1221.80334	673.91949	1388.73889	-1308.55103	765.24487	1195.25317	-1305.51355	780.14600	1071.93726	-1336.44983	779.15582	952.28461	-1326.47083	720.30853	821.60602	-1359.78748	768.00446	831.65607	-1356.08911	749.04651	745.76294	-964.39276	622.01788	926.56293	-1181.90649	610.58862	931.36371	-1030.73242	804.60492	938.70856	-1175.20435	795.77625	938.31830	-924.11096	710.19934	598.01373	-941.81512	751.87555	466.61768	-939.34546	848.11285	301.30728	-1000.02252	928.47766	97.66876	-1052.50830	978.96472	79.95100	-995.39758	791.45032	38.23069	-1261.45337	592.63507	606.70062	-1234.46143	528.01166	464.61462	-1253.73169	520.36530	292.36423	-1219.91626	463.77145	87.21494	-1169.84863	492.76587	32.15888	-1223.01196	318.63129	92.05321	-1085.04785	557.88782	1695.05225	-3101.92529	1973.18872	1023.26428	-3140.58057	2012.51270	1022.01959			 
25	0.240	-999.97290	576.20264	1654.04944	-1108.75549	536.12775	1659.74011	-1037.06055	691.68286	1623.87061	-1152.30469	653.73175	1630.13477	-1067.16150	737.79907	1426.65063	-1076.40710	780.15015	1133.15271	-1075.45178	594.53052	1357.44604	-1070.55884	555.40143	1201.73279	-1140.36279	799.34515	1233.47595	-912.33466	642.13336	1389.26233	-823.35132	619.58368	1208.75598	-816.79602	582.60541	1060.17456	-808.99463	488.60117	988.23615	-850.03412	366.69510	935.34119	-817.39722	403.54272	901.10858	-820.42383	323.87085	873.20349	-1223.94678	664.82355	1387.49170	-1310.83838	755.32355	1193.67651	-1307.75623	769.95514	1070.44861	-1338.60400	768.83514	950.89813	-1328.34668	710.11609	820.04492	-1361.54907	757.69556	830.10358	-1357.76868	738.72662	744.11029	-965.49561	612.14264	925.97827	-1183.19775	600.15082	930.59796	-1032.34680	794.62805	937.84796	-1176.68188	785.80219	937.12921	-924.61920	701.82642	597.82269	-942.05170	744.30225	466.60156	-939.17200	843.02148	302.65454	-999.05066	927.18610	100.34654	-1051.65771	977.94141	83.35349	-995.35046	791.07062	38.21836	-1261.52246	579.95453	606.35168	-1234.23657	517.32147	463.82062	-1253.00732	512.42780	290.44882	-1218.54724	458.80283	84.88589	-1168.48938	488.76233	30.64328	-1221.62573	313.67142	87.95813	-1087.36267	549.09143	1694.55872	-3101.92407	1973.09521	1023.58655	-3140.59424	2012.49927	1022.02051			 
26	0.250	-1002.35565	567.95227	1653.45313	-1111.04443	527.40424	1659.11511	-1039.78711	683.19836	1623.33398	-1155.02271	644.90857	1629.48059	-1069.79163	729.00629	1425.71570	-1078.34290	770.34064	1132.06262	-1077.79626	585.47736	1357.03296	-1072.47241	545.84552	1201.37134	-1142.61414	789.84924	1232.22900	-914.77289	633.53754	1388.99658	-825.48395	611.61694	1208.63477	-818.32422	574.55579	1059.94836	-810.17920	480.57544	987.99164	-850.92590	358.66727	934.80548	-818.24463	395.58200	900.72296	-821.08582	315.91046	872.53998	-1226.44019	655.77472	1386.43640	-1313.14246	745.32281	1192.14893	-1310.10779	759.57935	1068.92822	-1340.99744	758.27631	949.36334	-1330.50952	699.56281	818.57251	-1363.72156	747.17206	828.69873	-1359.86426	728.14502	742.68262	-966.85437	602.00854	925.36407	-1184.72925	589.52057	929.91504	-1033.88538	784.42151	937.05414	-1178.10828	775.44183	935.87097	-925.17529	693.16864	597.56598	-942.31805	736.20361	466.39035	-938.93427	837.63849	304.03485	-998.23004	925.41461	102.83037	-1050.44312	976.77698	87.01748	-994.91052	791.20673	38.08745	-1261.27417	567.13312	605.70123	-1233.91687	506.43359	462.55933	-1252.17139	505.17926	288.38089	-1216.83582	455.26743	82.42632	-1167.14343	487.20123	30.26941	-1220.45190	310.57007	83.15148	-1089.67480	540.45758	1693.95532	-3101.92114	1973.14795	1023.43030	-3140.68921	2012.60449	1022.05060			 
